<svg width="349" height="56" viewBox="0 0 349 56" fill="none" xmlns="http://www.w3.org/2000/svg">
<path d="M36.6831 27.9058C37.9193 25.3964 38.6325 22.5937 38.6325 19.6152C38.6325 9.08476 29.9788 0.55957 19.3163 0.55957C8.65369 0.55957 0 9.09649 0 19.6152C0 22.5937 0.713197 25.3964 1.94944 27.9058C0.713197 30.4153 0 33.218 0 36.1965C0 46.7269 8.65369 55.2521 19.3163 55.2521C29.9788 55.2521 38.6325 46.7152 38.6325 36.1965C38.6325 33.218 37.9193 30.4153 36.6831 27.9058ZM3.85135 19.6152C3.85135 11.1955 10.7695 4.37069 19.3044 4.37069C27.8392 4.37069 34.7574 11.1955 34.7574 19.6152C34.7574 21.1279 34.5316 22.582 34.1155 23.9657C30.5732 19.7911 25.2597 17.1409 19.3044 17.1409C13.349 17.1409 8.03556 19.8028 4.49326 23.9657C4.07722 22.582 3.85135 21.1279 3.85135 19.6152ZM32.2611 27.9058C29.5033 32.0922 24.7367 34.8597 19.3044 34.8597C13.872 34.8597 9.0935 32.0922 6.34762 27.9058C9.10539 23.7195 13.872 20.952 19.3044 20.952C24.7367 20.952 29.5033 23.7195 32.2611 27.9058ZM19.3044 51.441C10.7695 51.441 3.85135 44.6162 3.85135 36.1965C3.85135 34.6838 4.07722 33.2297 4.49326 31.846C8.03556 36.0206 13.349 38.6708 19.3044 38.6708C25.2597 38.6708 30.5732 36.0089 34.1155 31.846C34.5316 33.2297 34.7574 34.6838 34.7574 36.1965C34.7574 44.6162 27.8392 51.441 19.3044 51.441Z" fill="#2C00CE"/>
<path d="M40.2375 55.2289C42.0363 55.2289 43.4945 53.7903 43.4945 52.0158C43.4945 50.2413 42.0363 48.8027 40.2375 48.8027C38.4387 48.8027 36.9805 50.2413 36.9805 52.0158C36.9805 53.7903 38.4387 55.2289 40.2375 55.2289Z" fill="#2C00CE"/>
<path d="M69.9427 21.8085H63.5V19.3928H79.1194V21.8085H72.6767V38.1201H69.9427V21.8085Z" fill="#646464"/>
<path d="M81.7226 19.3928H84.3734V26.4522C85.2292 25.2444 86.727 24.4821 88.7358 24.4821C91.9572 24.4821 93.9899 26.6398 93.9899 30.1812V38.1318H91.3391V30.7793C91.3391 28.1877 90.0078 26.7923 87.8562 26.7923C85.7047 26.7923 84.3734 28.1877 84.3734 30.7793V38.1318H81.7226V19.3928Z" fill="#646464"/>
<path d="M97.2471 31.4947C97.2471 27.4959 100.243 24.4705 104.296 24.4705C108.349 24.4705 111.428 27.2848 111.06 32.2334H99.9811C100.183 34.5788 101.895 36.1618 104.593 36.1618C106.412 36.1618 107.898 35.4231 109.086 33.7813L111.107 35.2003C109.455 37.5104 107.101 38.4837 104.581 38.4837C100.005 38.4837 97.2471 35.5051 97.2471 31.5064V31.4947ZM108.314 30.0758C108.029 27.8125 106.412 26.5813 104.213 26.5813C102.014 26.5813 100.361 27.8008 100.076 30.0758H108.314Z" fill="#646464"/>
<path d="M120.533 28.7506C120.533 23.2274 124.634 19.0293 130.483 19.0293C134.12 19.0293 137.294 20.7531 138.946 23.6378L136.557 24.8339C135.404 22.7818 133.217 21.4684 130.483 21.4684C126.275 21.4684 123.469 24.5877 123.469 28.7389C123.469 32.8901 126.275 36.0093 130.483 36.0093C133.205 36.0093 135.404 34.696 136.557 32.6438L138.946 33.8399C137.294 36.7364 134.132 38.4484 130.483 38.4484C124.634 38.4484 120.533 34.2621 120.533 28.7271V28.7506Z" fill="#646464"/>
<path d="M141.859 32.7963V24.8457H144.509V32.1982C144.509 34.7898 145.841 36.1852 147.992 36.1852C150.144 36.1852 151.475 34.7781 151.475 32.1982V24.8457H154.126V38.1201H151.475V36.5136C150.619 37.7214 149.122 38.4719 147.113 38.4719C143.891 38.4719 141.859 36.326 141.859 32.7963Z" fill="#646464"/>
<path d="M157.276 35.1651L159.297 33.8752C160.07 35.5052 161.318 36.3495 163.006 36.3495C164.432 36.3495 165.49 35.6693 165.49 34.5787C165.49 33.5468 164.717 33.0191 162.958 32.5735L161.651 32.2569C159.57 31.7292 157.87 30.6152 157.87 28.2816C157.87 25.948 160.129 24.4705 162.815 24.4705C165.003 24.4705 166.952 25.4672 167.867 27.3669L165.811 28.5396C165.145 27.0855 164.028 26.6047 162.78 26.6047C161.532 26.6047 160.497 27.2262 160.497 28.2582C160.497 29.2901 161.294 29.7357 162.613 30.0523L163.957 30.3807C166.512 31.0139 168.141 32.0341 168.141 34.4732C168.141 36.9123 165.775 38.4602 163.018 38.4602C160.474 38.4602 158.322 37.2876 157.3 35.1651H157.276Z" fill="#646464"/>
<path d="M172.658 33.8512V27.1319H169.591V24.8335H172.658V21.21H175.285V24.8335H179.612V27.1319H175.285V33.6166C175.285 35.5515 176.414 35.9854 177.817 35.9854C178.458 35.9854 179.017 35.9385 179.505 35.8681V38.1079C178.756 38.2252 178.031 38.2838 177.341 38.2838C174.678 38.2838 172.658 37.3691 172.658 33.8394V33.8512Z" fill="#646464"/>
<path d="M181.573 31.4714C181.573 27.461 184.593 24.4824 188.836 24.4824C193.08 24.4824 196.111 27.461 196.111 31.4714C196.111 35.4819 193.08 38.4722 188.836 38.4722C184.593 38.4722 181.573 35.4936 181.573 31.4714ZM193.341 31.4714C193.341 28.7392 191.534 26.7926 188.836 26.7926C186.138 26.7926 184.343 28.7392 184.343 31.4714C184.343 34.2037 186.138 36.162 188.836 36.162C191.534 36.162 193.341 34.2037 193.341 31.4714Z" fill="#646464"/>
<path d="M199.534 24.8459H202.185V26.4525C203.041 25.2446 204.539 24.4941 206.548 24.4941C208.556 24.4941 210.232 25.3971 211.088 27.0036C212.122 25.2446 214.226 24.4941 216.164 24.4941C219.385 24.4941 221.418 26.6401 221.418 30.1815V38.1321H218.767V30.7796C218.767 28.188 217.436 26.7925 215.284 26.7925C213.133 26.7925 211.801 28.188 211.801 30.7796V38.1321H209.151V30.7796C209.151 28.188 207.819 26.7925 205.668 26.7925C203.516 26.7925 202.185 28.188 202.185 30.7796V38.1321H199.534V24.8459Z" fill="#646464"/>
<path d="M224.675 31.4949C224.675 27.4962 227.67 24.4707 231.724 24.4707C235.777 24.4707 238.856 27.2851 238.487 32.2337H227.409C227.611 34.579 229.323 36.1621 232.021 36.1621C233.84 36.1621 235.325 35.4233 236.514 33.7816L238.535 35.2005C236.883 37.5106 234.529 38.4839 232.009 38.4839C227.433 38.4839 224.675 35.5054 224.675 31.5066V31.4949ZM235.742 30.076C235.456 27.8128 233.84 26.5815 231.652 26.5815C229.465 26.5815 227.801 27.801 227.516 30.076H235.742Z" fill="#646464"/>
<path d="M242.065 24.846H244.716V27.0506C245.715 25.0219 248.08 24.4004 249.816 24.5998V27.3672C249.471 27.3086 249.114 27.2734 248.782 27.2734C246.582 27.2734 244.716 28.5399 244.716 31.4012V38.1205H242.065V24.846Z" fill="#646464"/>
<path d="M265.602 19.3928C269.631 19.3928 271.509 21.5388 271.509 24.1655C271.509 26.1121 270.499 27.4138 269.168 28.1174C271.082 28.7623 272.758 30.2633 272.758 32.808C272.758 36.2907 270.107 38.1201 265.863 38.1201H258.981V19.3928H265.602ZM265.447 27.3434C267.444 27.3434 268.633 26.1942 268.633 24.5408C268.633 22.8873 267.444 21.7381 265.447 21.7381H261.727V27.3434H265.447ZM265.851 35.7748C268.633 35.7748 269.822 34.5904 269.822 32.6907C269.822 30.791 268.633 29.6184 265.851 29.6184H261.738V35.7748H265.851Z" fill="#646464"/>
<path d="M275.943 32.7963V24.8457H278.594V32.1982C278.594 34.7898 279.925 36.1852 282.077 36.1852C284.228 36.1852 285.56 34.7781 285.56 32.1982V24.8457H288.21V38.1201H285.56V36.5136C284.704 37.7214 283.206 38.4719 281.197 38.4719C277.976 38.4719 275.943 36.326 275.943 32.7963Z" fill="#646464"/>
<path d="M292.704 24.846H295.355V27.0506C296.353 25.0219 298.707 24.4004 300.454 24.5998V27.3672C300.11 27.3086 299.753 27.2734 299.42 27.2734C297.221 27.2734 295.355 28.5399 295.355 31.4012V38.1205H292.704V24.846Z" fill="#646464"/>
<path d="M301.868 31.4949C301.868 27.4962 304.864 24.4707 308.917 24.4707C312.971 24.4707 316.049 27.2851 315.681 32.2337H304.602C304.804 34.579 306.516 36.1621 309.214 36.1621C311.033 36.1621 312.519 35.4233 313.707 33.7816L315.728 35.2005C314.076 37.5106 311.722 38.4839 309.202 38.4839C304.626 38.4839 301.868 35.5054 301.868 31.5066V31.4949ZM312.935 30.076C312.65 27.8128 311.033 26.5815 308.834 26.5815C306.635 26.5815 304.983 27.801 304.697 30.076H312.935Z" fill="#646464"/>
<path d="M318.214 31.4832C318.214 27.461 321.067 24.4941 325.084 24.4941C327.272 24.4941 328.936 25.444 329.792 26.6166V24.8459H332.442V38.1204H329.792V36.3497C328.936 37.5223 327.272 38.4722 325.084 38.4722C321.067 38.4722 318.214 35.5054 318.214 31.4832ZM329.958 31.4832C329.958 28.5984 327.985 26.8043 325.477 26.8043C322.969 26.8043 321.007 28.5984 321.007 31.4832C321.007 34.3679 322.981 36.162 325.477 36.162C327.973 36.162 329.958 34.3679 329.958 31.4832Z" fill="#646464"/>
<path d="M336.733 32.7963V24.8457H339.384V32.1982C339.384 34.7898 340.716 36.1853 342.867 36.1853C345.019 36.1853 346.35 34.7781 346.35 32.1982V24.8457H349.001V38.1201H346.35V36.5136C345.494 37.7214 343.996 38.4719 341.987 38.4719C338.766 38.4719 336.733 36.326 336.733 32.7963Z" fill="#646464"/>
</svg>
